<svg width="117" height="17" viewBox="0 0 117 17" fill="none" xmlns="http://www.w3.org/2000/svg">
<path d="M0.298 17V1.16H12.266C13.146 1.16 13.9087 1.48267 14.554 2.128C15.1993 2.75867 15.522 3.52133 15.522 4.416V7.386C15.522 7.57667 15.5073 7.76 15.478 7.936C15.4633 8.09733 15.4267 8.25133 15.368 8.398C15.588 8.67667 15.7713 8.99933 15.918 9.366C16.0647 9.73267 16.138 10.0993 16.138 10.466V13.744C16.138 14.6387 15.8153 15.4087 15.17 16.054C14.5247 16.6847 13.7547 17 12.86 17H0.298ZM4.434 13.568H11.958C12.442 13.568 12.684 13.568 12.684 13.568C12.684 13.568 12.684 13.326 12.684 12.842V11.39C12.684 10.906 12.684 10.664 12.684 10.664C12.684 10.664 12.442 10.664 11.958 10.664H4.434C3.95 10.664 3.708 10.664 3.708 10.664C3.708 10.664 3.708 10.906 3.708 11.39V12.842C3.708 13.326 3.708 13.568 3.708 13.568C3.708 13.568 3.95 13.568 4.434 13.568ZM4.434 7.232H11.342C11.826 7.232 12.068 7.232 12.068 7.232C12.068 7.232 12.068 6.99 12.068 6.506V5.318C12.068 4.834 12.068 4.592 12.068 4.592C12.068 4.592 11.826 4.592 11.342 4.592H4.434C3.95 4.592 3.708 4.592 3.708 4.592C3.708 4.592 3.708 4.834 3.708 5.318V6.506C3.708 6.99 3.708 7.232 3.708 7.232C3.708 7.232 3.95 7.232 4.434 7.232ZM21.6167 17C20.7514 17 20.0034 16.6847 19.3727 16.054C18.742 15.4233 18.4267 14.6753 18.4267 13.81V7.43C18.4267 6.56467 18.742 5.81667 19.3727 5.186C20.0034 4.55533 20.7514 4.24 21.6167 4.24H28.1727C29.0527 4.24 29.8007 4.55533 30.4167 5.186C31.0474 5.81667 31.3627 6.56467 31.3627 7.43V13.81C31.3627 14.6753 31.0474 15.4233 30.4167 16.054C29.8007 16.6847 29.0527 17 28.1727 17H21.6167ZM22.5187 13.634H27.2707C27.7547 13.634 27.9967 13.634 27.9967 13.634C27.9967 13.634 27.9967 13.392 27.9967 12.908V8.332C27.9967 7.848 27.9967 7.606 27.9967 7.606C27.9967 7.606 27.7547 7.606 27.2707 7.606H22.5187C22.0347 7.606 21.7927 7.606 21.7927 7.606C21.7927 7.606 21.7927 7.848 21.7927 8.332V12.908C21.7927 13.392 21.7927 13.634 21.7927 13.634C21.7927 13.634 22.0347 13.634 22.5187 13.634ZM32.9475 17V15.9L37.3475 10.51L32.9475 5.34V4.24H36.4015L39.5255 7.936L42.6275 4.24H46.1035V5.34L41.7035 10.51L46.1035 15.9V17H42.6495L39.5255 13.172L36.4015 17H32.9475ZM48.444 17V1.16H63.074V4.592H51.898V7.364H60.896V10.796H51.898V17H48.444ZM64.2104 17V4.24H67.5764V17H64.2104ZM64.2104 3.448V0.0599991H67.5764V3.448H64.2104ZM73.0938 17C72.2284 17 71.4804 16.6847 70.8498 16.054C70.2191 15.4233 69.9038 14.6753 69.9038 13.81V0.0379994H73.2918V12.908C73.2918 13.392 73.2918 13.634 73.2918 13.634C73.2918 13.634 73.5338 13.634 74.0178 13.634H75.8658V17H73.0938ZM77.3599 17V4.24H92.7159C93.5959 4.24 94.3439 4.55533 94.9599 5.186C95.5905 5.81667 95.9059 6.56467 95.9059 7.43V17H92.5619V8.332C92.5619 7.848 92.5619 7.606 92.5619 7.606C92.5619 7.606 92.3199 7.606 91.8359 7.606H89.0639C88.5799 7.606 88.3379 7.606 88.3379 7.606C88.3379 7.606 88.3379 7.848 88.3379 8.332V17H84.9499V8.332C84.9499 7.848 84.9499 7.606 84.9499 7.606C84.9499 7.606 84.7079 7.606 84.2239 7.606H81.4519C80.9679 7.606 80.7259 7.606 80.7259 7.606C80.7259 7.606 80.7259 7.848 80.7259 8.332V17H77.3599ZM98.8657 7.496V1.468H102.232V4.218C102.232 5.01 101.909 5.714 101.264 6.33C100.618 6.946 99.8191 7.33467 98.8657 7.496ZM107.166 17C106.301 17 105.553 16.6847 104.922 16.054C104.291 15.4233 103.976 14.6753 103.976 13.81V13.172H107.342V13.282C107.342 13.5167 107.342 13.634 107.342 13.634C107.342 13.634 107.459 13.634 107.694 13.634H113.194C113.429 13.634 113.546 13.634 113.546 13.634C113.546 13.634 113.546 13.5167 113.546 13.282V12.666C113.546 12.4313 113.546 12.314 113.546 12.314C113.546 12.314 113.429 12.314 113.194 12.314H107.166C106.301 12.314 105.553 11.9987 104.922 11.368C104.291 10.7373 103.976 9.98933 103.976 9.124V7.43C103.976 6.56467 104.291 5.81667 104.922 5.186C105.553 4.55533 106.301 4.24 107.166 4.24H113.722C114.602 4.24 115.357 4.55533 115.988 5.186C116.619 5.81667 116.934 6.56467 116.934 7.43V8.068H113.546V7.958C113.546 7.72333 113.546 7.606 113.546 7.606C113.546 7.606 113.429 7.606 113.194 7.606H107.694C107.459 7.606 107.342 7.606 107.342 7.606C107.342 7.606 107.342 7.72333 107.342 7.958V8.574C107.342 8.80867 107.342 8.926 107.342 8.926C107.342 8.926 107.459 8.926 107.694 8.926H113.722C114.602 8.926 115.357 9.24133 115.988 9.872C116.619 10.5027 116.934 11.2507 116.934 12.116V13.81C116.934 14.6753 116.619 15.4233 115.988 16.054C115.357 16.6847 114.602 17 113.722 17H107.166Z" fill="white"/>
</svg>
