<svg width="103" height="19" viewBox="0 0 103 19" fill="none" xmlns="http://www.w3.org/2000/svg">
<path d="M17.2484 7.7732L1.93851 0.126323C1.73197 0.0307326 1.50478 -0.0117363 1.27761 0.00278215C1.05045 0.0173006 0.830525 0.0883455 0.637865 0.209449C0.445205 0.330553 0.285926 0.49787 0.174527 0.696169C0.0631284 0.894467 0.00314821 1.11745 4.62931e-05 1.34482V16.632C-0.00188252 16.8654 0.0564923 17.0953 0.169529 17.2996C0.282565 17.5039 0.446441 17.6756 0.645316 17.7981C0.84419 17.9206 1.07134 17.9898 1.30481 17.9989C1.53827 18.0081 1.77017 17.957 1.97807 17.8505L17.2484 10.2036C17.4746 10.0902 17.6648 9.91615 17.7976 9.70097C17.9305 9.4858 18.0009 9.23794 18.0009 8.98511C18.0009 8.73228 17.9305 8.48442 17.7976 8.26925C17.6648 8.05407 17.4746 7.88004 17.2484 7.76661V7.7732Z" fill="white"/>
<path d="M26.377 9.70898H27.0742C27.7259 9.70898 28.2135 9.58138 28.5371 9.32617C28.8607 9.06641 29.0225 8.69043 29.0225 8.19824C29.0225 7.7015 28.8857 7.33464 28.6123 7.09766C28.3434 6.86068 27.9196 6.74219 27.3408 6.74219H26.377V9.70898ZM31.1621 8.12305C31.1621 9.19857 30.8249 10.0212 30.1504 10.5908C29.4805 11.1605 28.5257 11.4453 27.2861 11.4453H26.377V15H24.2578V5.00586H27.4502C28.6624 5.00586 29.583 5.2679 30.2119 5.79199C30.8454 6.31152 31.1621 7.08854 31.1621 8.12305ZM34.9697 15H32.8848V4.36328H34.9697V15ZM42.0176 15L41.6143 13.9609H41.5596C41.2087 14.403 40.8464 14.7106 40.4727 14.8838C40.1035 15.0524 39.6204 15.1367 39.0234 15.1367C38.2897 15.1367 37.7109 14.9271 37.2871 14.5078C36.8678 14.0885 36.6582 13.4915 36.6582 12.7168C36.6582 11.9056 36.9408 11.3086 37.5059 10.9258C38.0755 10.5384 38.9323 10.3242 40.0762 10.2832L41.4023 10.2422V9.90723C41.4023 9.13249 41.0059 8.74512 40.2129 8.74512C39.6022 8.74512 38.8844 8.92969 38.0596 9.29883L37.3691 7.89062C38.2487 7.43034 39.224 7.2002 40.2949 7.2002C41.3203 7.2002 42.1064 7.4235 42.6533 7.87012C43.2002 8.31673 43.4736 8.99577 43.4736 9.90723V15H42.0176ZM41.4023 11.459L40.5957 11.4863C39.9896 11.5046 39.5384 11.6139 39.2422 11.8145C38.946 12.015 38.7979 12.3203 38.7979 12.7305C38.7979 13.3184 39.1351 13.6123 39.8096 13.6123C40.2926 13.6123 40.6777 13.4733 40.9648 13.1953C41.2565 12.9173 41.4023 12.5482 41.4023 12.0879V11.459ZM44.5332 7.35742H46.8164L48.2588 11.6572C48.3818 12.0309 48.4661 12.473 48.5117 12.9834H48.5527C48.6029 12.514 48.7008 12.0719 48.8467 11.6572L50.2617 7.35742H52.4971L49.2637 15.9775C48.9674 16.7751 48.5436 17.3721 47.9922 17.7686C47.4453 18.165 46.805 18.3633 46.0713 18.3633C45.7113 18.3633 45.3581 18.3245 45.0117 18.2471V16.5928C45.2624 16.652 45.5358 16.6816 45.832 16.6816C46.2012 16.6816 46.5225 16.5677 46.7959 16.3398C47.0739 16.1165 47.2904 15.777 47.4453 15.3213L47.5684 14.9453L44.5332 7.35742ZM61.2539 15H59.1348V6.76953H56.4209V5.00586H63.9678V6.76953H61.2539V15ZM69.6074 7.21387C69.89 7.21387 70.1247 7.23438 70.3115 7.27539L70.1543 9.23047C69.9857 9.1849 69.7806 9.16211 69.5391 9.16211C68.8737 9.16211 68.3542 9.33301 67.9805 9.6748C67.6113 10.0166 67.4268 10.4951 67.4268 11.1104V15H65.3418V7.35742H66.9209L67.2285 8.64258H67.3311C67.568 8.21419 67.887 7.87012 68.2881 7.61035C68.6937 7.34603 69.1335 7.21387 69.6074 7.21387ZM76.5527 15L76.1494 13.9609H76.0947C75.7438 14.403 75.3815 14.7106 75.0078 14.8838C74.6387 15.0524 74.1556 15.1367 73.5586 15.1367C72.8249 15.1367 72.2461 14.9271 71.8223 14.5078C71.403 14.0885 71.1934 13.4915 71.1934 12.7168C71.1934 11.9056 71.4759 11.3086 72.041 10.9258C72.6107 10.5384 73.4674 10.3242 74.6113 10.2832L75.9375 10.2422V9.90723C75.9375 9.13249 75.541 8.74512 74.748 8.74512C74.1374 8.74512 73.4196 8.92969 72.5947 9.29883L71.9043 7.89062C72.7839 7.43034 73.7591 7.2002 74.8301 7.2002C75.8555 7.2002 76.6416 7.4235 77.1885 7.87012C77.7354 8.31673 78.0088 8.99577 78.0088 9.90723V15H76.5527ZM75.9375 11.459L75.1309 11.4863C74.5247 11.5046 74.0736 11.6139 73.7773 11.8145C73.4811 12.015 73.333 12.3203 73.333 12.7305C73.333 13.3184 73.6702 13.6123 74.3447 13.6123C74.8278 13.6123 75.2129 13.4733 75.5 13.1953C75.7917 12.9173 75.9375 12.5482 75.9375 12.0879V11.459ZM80.0732 5.38184C80.0732 4.7028 80.4515 4.36328 81.208 4.36328C81.9645 4.36328 82.3428 4.7028 82.3428 5.38184C82.3428 5.7054 82.2471 5.95833 82.0557 6.14062C81.8688 6.31836 81.5863 6.40723 81.208 6.40723C80.4515 6.40723 80.0732 6.06543 80.0732 5.38184ZM82.2471 15H80.1621V7.35742H82.2471V15ZM86.5264 15H84.4414V4.36328H86.5264V15ZM91.8857 8.69727C91.4437 8.69727 91.0973 8.83854 90.8467 9.12109C90.596 9.39909 90.4525 9.79557 90.416 10.3105H93.3418C93.3327 9.79557 93.1982 9.39909 92.9385 9.12109C92.6787 8.83854 92.3278 8.69727 91.8857 8.69727ZM92.1797 15.1367C90.9492 15.1367 89.9876 14.7972 89.2949 14.1182C88.6022 13.4391 88.2559 12.4775 88.2559 11.2334C88.2559 9.9528 88.5749 8.96387 89.2129 8.2666C89.8555 7.56478 90.7419 7.21387 91.8721 7.21387C92.9521 7.21387 93.793 7.52148 94.3945 8.13672C94.9961 8.75195 95.2969 9.60189 95.2969 10.6865V11.6982H90.3682C90.391 12.2907 90.5664 12.7533 90.8945 13.0859C91.2227 13.4186 91.6829 13.585 92.2754 13.585C92.7357 13.585 93.1709 13.5371 93.5811 13.4414C93.9912 13.3457 94.4196 13.193 94.8662 12.9834V14.5967C94.5016 14.779 94.112 14.9134 93.6973 15C93.2826 15.0911 92.7767 15.1367 92.1797 15.1367ZM101.258 7.21387C101.54 7.21387 101.775 7.23438 101.962 7.27539L101.805 9.23047C101.636 9.1849 101.431 9.16211 101.189 9.16211C100.524 9.16211 100.005 9.33301 99.6309 9.6748C99.2617 10.0166 99.0771 10.4951 99.0771 11.1104V15H96.9922V7.35742H98.5713L98.8789 8.64258H98.9814C99.2184 8.21419 99.5374 7.87012 99.9385 7.61035C100.344 7.34603 100.784 7.21387 101.258 7.21387Z" fill="white"/>
</svg>
